<svg width="24" height="23" viewBox="0 0 24 23" fill="none" xmlns="http://www.w3.org/2000/svg">
<path d="M1.89258 9.87988C1.06415 9.87988 0.392578 10.5515 0.392578 11.3799C0.392578 12.2083 1.06415 12.8799 1.89258 12.8799L1.89258 9.87988ZM22.9532 12.4405C23.539 11.8548 23.539 10.905 22.9532 10.3192L13.4073 0.773282C12.8215 0.187495 11.8718 0.187495 11.286 0.773282C10.7002 1.35907 10.7002 2.30882 11.286 2.8946L19.7713 11.3799L11.286 19.8652C10.7002 20.4509 10.7002 21.4007 11.286 21.9865C11.8718 22.5723 12.8215 22.5723 13.4073 21.9865L22.9532 12.4405ZM1.89258 12.8799L21.8926 12.8799L21.8926 9.87988L1.89258 9.87988L1.89258 12.8799Z" fill="#B9FF66"/>
</svg>
