<svg width="195" height="56" viewBox="0 0 195 56" fill="none" xmlns="http://www.w3.org/2000/svg">
<g clip-path="url(#clip0_1002_259)">
<g clip-path="url(#clip1_1002_259)">
<path d="M17.9986 15.5347L35.5997 10.3491L30.464 28.0001L35.5997 45.6012L17.9986 40.4655L0.347656 45.6012L5.53325 28.0001L0.347656 10.3491L17.9986 15.5347Z" fill="black"/>
</g>
</g>
<path d="M65.139 42V11.9H77.093C78.9277 11.9 80.5617 12.2727 81.995 13.018C83.457 13.7347 84.5893 14.7667 85.392 16.114C86.2233 17.4327 86.639 19.0237 86.639 20.887V21.446C86.639 23.3093 86.209 24.9147 85.349 26.262C84.5177 27.6093 83.3853 28.6413 81.952 29.358C80.5187 30.0747 78.899 30.433 77.093 30.433H69.783V42H65.139ZM69.783 26.219H76.62C78.254 26.219 79.5583 25.789 80.533 24.929C81.5077 24.069 81.995 22.8937 81.995 21.403V20.973C81.995 19.4537 81.5077 18.264 80.533 17.404C79.5583 16.544 78.254 16.114 76.62 16.114H69.783V26.219ZM91.1772 42V11.9H95.6062V42H91.1772ZM110.306 42.387C108.701 42.387 107.267 42.0287 106.006 41.312C104.745 40.5953 103.756 39.5777 103.039 38.259C102.322 36.9403 101.964 35.3637 101.964 33.529V20.801H106.393V33.228C106.393 35.0627 106.852 36.4243 107.769 37.313C108.686 38.173 109.962 38.603 111.596 38.603C113.402 38.603 114.85 38.001 115.939 36.797C117.057 35.5643 117.616 33.8013 117.616 31.508V20.801H122.045V42H117.702V38.818H117.014C116.613 39.678 115.896 40.495 114.864 41.269C113.832 42.0143 112.313 42.387 110.306 42.387ZM136.547 42C135.257 42 134.225 41.613 133.451 40.839C132.706 40.065 132.333 39.033 132.333 37.743V24.542H126.485V20.801H132.333V13.792H136.762V20.801H143.083V24.542H136.762V36.969C136.762 37.829 137.164 38.259 137.966 38.259H142.395V42H136.547ZM156.414 42.387C154.808 42.387 153.375 42.0287 152.114 41.312C150.852 40.5953 149.863 39.5777 149.147 38.259C148.43 36.9403 148.072 35.3637 148.072 33.529V20.801H152.501V33.228C152.501 35.0627 152.959 36.4243 153.877 37.313C154.794 38.173 156.07 38.603 157.704 38.603C159.51 38.603 160.957 38.001 162.047 36.797C163.165 35.5643 163.724 33.8013 163.724 31.508V20.801H168.153V42H163.81V38.818H163.122C162.72 39.678 162.004 40.495 160.972 41.269C159.94 42.0143 158.42 42.387 156.414 42.387ZM183.386 42.602C180.691 42.602 178.455 42 176.678 40.796C174.9 39.592 173.811 37.7717 173.41 35.335L177.538 34.346C177.767 35.5213 178.154 36.453 178.699 37.141C179.243 37.829 179.917 38.3163 180.72 38.603C181.551 38.8897 182.44 39.033 183.386 39.033C184.79 39.033 185.865 38.7607 186.611 38.216C187.385 37.6713 187.772 36.969 187.772 36.109C187.772 35.249 187.413 34.6183 186.697 34.217C185.98 33.8157 184.919 33.486 183.515 33.228L182.053 32.97C180.619 32.712 179.315 32.3393 178.14 31.852C176.964 31.3647 176.033 30.691 175.345 29.831C174.657 28.971 174.313 27.8673 174.313 26.52C174.313 24.5133 175.058 22.9653 176.549 21.876C178.039 20.758 180.017 20.199 182.483 20.199C184.862 20.199 186.811 20.7437 188.331 21.833C189.879 22.8937 190.882 24.3413 191.341 26.176L187.213 27.337C186.955 26.047 186.41 25.144 185.579 24.628C184.747 24.0833 183.715 23.811 182.483 23.811C181.279 23.811 180.333 24.0403 179.645 24.499C178.957 24.929 178.613 25.5453 178.613 26.348C178.613 27.208 178.942 27.8387 179.602 28.24C180.29 28.6413 181.207 28.9423 182.354 29.143L183.859 29.401C185.378 29.659 186.768 30.0173 188.03 30.476C189.291 30.9347 190.28 31.594 190.997 32.454C191.742 33.314 192.115 34.4607 192.115 35.894C192.115 38.0153 191.326 39.6637 189.75 40.839C188.173 42.0143 186.052 42.602 183.386 42.602Z" fill="black"/>
<defs>
<clipPath id="clip0_1002_259">
<rect width="41" height="56" fill="white"/>
</clipPath>
<clipPath id="clip1_1002_259">
<rect width="36" height="36" fill="white" transform="translate(0 10)"/>
</clipPath>
</defs>
</svg>
